<?xml version="1.0" standalone="no"?>
<!DOCTYPE svg PUBLIC "-//W3C//DTD SVG 20010904//EN"
 "http://www.w3.org/TR/2001/REC-SVG-20010904/DTD/svg10.dtd">
<svg version="1.0" xmlns="http://www.w3.org/2000/svg"
 width="626.000000pt" height="626.000000pt" viewBox="0 0 626.000000 626.000000"
 preserveAspectRatio="xMidYMid meet">

<g transform="translate(0.000000,626.000000) scale(0.100000,-0.100000)"
fill="#000000" stroke="none">
<path d="M4290 5349 c-28 -15 -56 -19 -137 -19 -94 0 -124 8 -90 24 6 4 1 4
-13 1 -14 -2 -115 -6 -225 -7 -110 -1 -160 -4 -112 -5 53 -2 85 -8 82 -13 -4
-6 -1 -10 5 -10 6 0 8 -4 5 -10 -8 -13 -215 -13 -215 -1 0 6 19 12 43 14 47 5
-113 -1 -213 -7 -36 -3 -52 -2 -36 2 17 4 28 12 25 17 -2 7 -232 10 -661 10
-361 0 -654 3 -651 8 6 10 -328 0 -447 -14 -198 -22 -489 -84 -452 -96 22 -8
13 -20 -19 -27 -26 -5 -29 -9 -20 -20 10 -12 8 -17 -8 -26 -27 -14 -27 -30 -1
-30 11 0 19 -5 18 -12 -2 -6 8 -14 21 -17 19 -5 21 -8 10 -17 -8 -6 -23 -14
-34 -19 -19 -7 -19 -8 5 -15 24 -8 24 -8 -5 -9 -16 -1 -36 -5 -43 -10 -21 -13
52 -21 90 -10 41 11 48 11 48 -1 0 -5 -16 -12 -35 -16 -30 -5 -33 -9 -25 -25
8 -14 6 -20 -7 -28 -14 -8 -6 -11 37 -12 54 -1 55 -1 25 -14 -28 -12 -25 -13
58 -20 49 -4 110 -4 137 -1 32 4 50 3 50 -4 0 -5 -11 -10 -24 -10 -14 0 -27
-4 -30 -8 -3 -5 8 -7 23 -4 16 2 31 0 35 -6 3 -5 -57 -14 -152 -22 -113 -9
-168 -18 -196 -31 -23 -11 -44 -15 -49 -10 -5 5 -18 6 -30 3 -20 -5 -20 -6 -1
-13 10 -4 46 -8 79 -9 33 -1 71 -6 85 -10 20 -6 14 -8 -30 -10 -30 -2 -44 -5
-30 -7 30 -6 44 -24 27 -35 -7 -4 17 -8 53 -9 36 -1 79 -5 95 -9 24 -6 15 -8
-40 -10 -119 -4 293 -37 530 -43 115 -3 190 -3 165 0 -91 9 -58 21 72 27 73 3
269 8 436 11 296 6 302 5 302 -14 0 -11 -8 -22 -17 -24 -16 -4 -16 -5 0 -6 17
-1 18 -8 13 -93 -20 -326 -35 -947 -35 -1448 0 -217 -1 -406 -1 -419 0 -14 2
-22 5 -19 3 3 8 84 12 179 3 96 6 175 8 177 4 5 18 -433 19 -578 1 -315 -10
-786 -18 -799 -12 -19 -8 -255 5 -341 27 -177 85 -364 100 -324 6 17 8 16 18
-10 7 -16 17 -26 24 -23 7 3 21 -1 31 -9 20 -14 41 -9 31 7 -4 5 1 9 10 9 8 0
18 7 22 16 5 13 9 12 28 -6 22 -21 23 -21 28 -3 3 12 5 10 6 -9 0 -15 5 -29
10 -32 14 -9 22 40 11 70 -7 17 -7 31 -1 37 5 5 12 -3 16 -22 6 -27 10 -30 31
-25 19 5 24 2 25 -12 1 -11 7 1 14 26 13 46 18 46 16 0 0 -14 8 4 19 40 14 46
18 81 15 120 -6 54 -5 54 9 25 l14 -30 1 33 c1 17 5 32 10 32 5 0 12 -50 16
-110 5 -73 13 -122 25 -145 10 -20 15 -46 12 -61 -3 -18 -1 -25 6 -20 6 3 14
35 17 71 8 76 24 96 26 33 1 -34 3 -38 8 -17 4 17 12 25 23 24 13 -2 18 9 23
56 4 32 12 62 17 65 7 5 9 -13 5 -52 -11 -103 2 -45 27 126 14 91 27 228 29
305 2 77 3 121 0 98 -2 -24 -8 -43 -13 -43 -8 0 -19 807 -11 911 2 35 6 47 12
38 6 -10 9 -8 9 10 0 13 2 22 5 19 3 -2 7 -83 10 -178 3 -95 7 -175 10 -178 7
-7 11 435 3 460 -4 15 -6 4 -7 -31 -2 -84 -14 -52 -28 72 -6 62 -15 132 -18
157 -5 33 -4 41 4 30 8 -12 11 -5 11 28 0 49 17 57 22 10 2 -18 3 131 1 332
-1 201 -5 392 -9 425 -4 33 -8 270 -8 527 -1 458 -1 467 19 474 19 6 19 7 -2
11 -13 2 -23 9 -23 14 0 12 133 12 146 0 26 -25 1216 48 1374 85 72 17 167 66
138 72 -23 5 -23 10 5 33 l22 18 -27 1 c-16 0 -28 5 -28 10 0 6 5 10 11 10 5
0 7 5 4 10 -4 6 -1 18 6 26 10 13 10 17 -1 24 -11 7 -12 18 -4 52 13 57 9 66
-32 74 -19 3 -34 10 -34 15 0 5 -26 10 -57 10 -32 1 -50 3 -40 6 9 2 17 8 17
12 0 4 23 18 50 31 30 14 46 26 39 31 -8 4 -1 12 17 23 19 10 23 15 12 16 -11
0 -16 6 -13 20 2 13 -2 20 -11 20 -8 0 -13 4 -9 9 3 6 -14 12 -37 15 -178 22
-292 29 -484 31 -122 2 -230 7 -240 13 -14 7 -28 5 -54 -9z m230 -159 c0 -6
-40 -9 -102 -9 -72 1 -92 4 -68 9 54 11 170 11 170 0z m-2695 -110 c4 -6 -20
-9 -67 -8 -71 1 -72 1 -23 8 78 11 83 11 90 0z m104 -16 c2 -2 -12 -4 -33 -4
-22 0 -35 4 -31 10 5 9 52 4 64 -6z m-376 -151 c-7 -2 -19 -2 -25 0 -7 3 -2 5
12 5 14 0 19 -2 13 -5z m1303 -240 c-11 -11 -19 6 -11 24 8 17 8 17 12 0 3
-10 2 -21 -1 -24z m-19 -145 c-2 -13 -4 -3 -4 22 0 25 2 35 4 23 2 -13 2 -33
0 -45z m10 -1870 c-2 -13 -4 -5 -4 17 -1 22 1 32 4 23 2 -10 2 -28 0 -40z m30
-45 c-3 -10 -5 -4 -5 12 0 17 2 24 5 18 2 -7 2 -21 0 -30z m23 -99 c0 -8 -5
-12 -10 -9 -6 4 -8 11 -5 16 9 14 15 11 15 -7z m220 -999 c0 -14 -4 -25 -10
-25 -5 0 -10 11 -10 25 0 14 5 25 10 25 6 0 10 -11 10 -25z m-20 -105 c0 -65
-14 -65 -17 0 -1 28 3 50 8 50 5 0 9 -22 9 -50z m170 -160 c0 -5 -4 -10 -10
-10 -5 0 -10 5 -10 10 0 6 5 10 10 10 6 0 10 -4 10 -10z"/>
<path d="M2433 4683 c9 -2 23 -2 30 0 6 3 -1 5 -18 5 -16 0 -22 -2 -12 -5z"/>
<path d="M3552 2835 c0 -16 2 -22 5 -12 2 9 2 23 0 30 -3 6 -5 -1 -5 -18z"/>
<path d="M3557 2753 c-2 -5 0 -21 4 -38 7 -29 7 -29 8 8 1 35 -3 46 -12 30z"/>
<path d="M3522 1920 c0 -14 2 -19 5 -12 2 6 2 18 0 25 -3 6 -5 1 -5 -13z"/>
</g>
</svg>
