{
  "accessors": [
    {
      "bufferView": 2,
      "componentType": 5126,
      "count": 65532,
      "max": [
        0.2701558470726013,
        0.9747516512870789,
        -1.391163095831871e-08
      ],
      "min": [
        -0.9377280473709106,
        -0.9747516512870789,
        -0.8024201393127441
      ],
      "type": "VEC3"
    },
    {
      "bufferView": 2,
      "byteOffset": 786384,
      "componentType": 5126,
      "count": 65532,
      "max": [
        0.3051985800266266,
        1.0,
        0.00872011762112379
      ],
      "min": [
        -1.0,
        -1.0,
        -0.8596866130828857
      ],
      "type": "VEC3"
    },
    {
      "bufferView": 3,
      "componentType": 5126,
      "count": 65532,
      "max": [
        0.6622150540351868,
        0.17459751665592194,
        1.0,
        1.0
      ],
      "min": [
        -1.0,
        -0.1745898425579071,
        -0.9944052696228027,
        1.0
      ],
      "type": "VEC4"
    },
    {
      "bufferView": 1,
      "componentType": 5126,
      "count": 65532,
      "max": [
        1.000000238418579,
        1.000000238418579
      ],
      "min": [
        0.625,
        0.0
      ],
      "type": "VEC2"
    },
    {
      "bufferView": 1,
      "byteOffset": 524256,
      "componentType": 5126,
      "count": 65532,
      "max": [
        1.000000238418579,
        1.000000238418579
      ],
      "min": [
        0.625,
        0.0
      ],
      "type": "VEC2"
    },
    {
      "bufferView": 1,
      "byteOffset": 1048512,
      "componentType": 5126,
      "count": 65532,
      "max": [
        1.000000238418579,
        1.000000238418579
      ],
      "min": [
        0.625,
        0.0
      ],
      "type": "VEC2"
    },
    {
      "bufferView": 0,
      "componentType": 5125,
      "count": 380196,
      "type": "SCALAR"
    },
    {
      "bufferView": 2,
      "byteOffset": 1572768,
      "componentType": 5126,
      "count": 65532,
      "max": [
        0.7900658249855042,
        0.7133829593658447,
        0.43184733390808105
      ],
      "min": [
        -0.7720049023628235,
        -0.9747516512870789,
        -0.909294605255127
      ],
      "type": "VEC3"
    },
    {
      "bufferView": 2,
      "byteOffset": 2359152,
      "componentType": 5126,
      "count": 65532,
      "max": [
        0.846573531627655,
        0.7228819727897644,
        0.47006839513778687
      ],
      "min": [
        -0.8244048357009888,
        -1.0,
        -0.970599889755249
      ],
      "type": "VEC3"
    },
    {
      "bufferView": 3,
      "byteOffset": 1048512,
      "componentType": 5126,
      "count": 65532,
      "max": [
        0.9976118803024292,
        0.17460544407367706,
        0.841558575630188,
        1.0
      ],
      "min": [
        -1.0,
        -0.17458339035511017,
        -1.0,
        1.0
      ],
      "type": "VEC4"
    },
    {
      "bufferView": 1,
      "byteOffset": 1572768,
      "componentType": 5126,
      "count": 65532,
      "max": [
        0.9091798067092896,
        0.7635518312454224
      ],
      "min": [
        0.3124999701976776,
        0.0
      ],
      "type": "VEC2"
    },
    {
      "bufferView": 1,
      "byteOffset": 2097024,
      "componentType": 5126,
      "count": 65532,
      "max": [
        0.9091798067092896,
        0.7635518312454224
      ],
      "min": [
        0.3124999701976776,
        0.0
      ],
      "type": "VEC2"
    },
    {
      "bufferView": 1,
      "byteOffset": 2621280,
      "componentType": 5126,
      "count": 65532,
      "max": [
        0.9091798067092896,
        0.7635518312454224
      ],
      "min": [
        0.3124999701976776,
        0.0
      ],
      "type": "VEC2"
    },
    {
      "bufferView": 0,
      "byteOffset": 1520784,
      "componentType": 5125,
      "count": 383817,
      "type": "SCALAR"
    },
    {
      "bufferView": 2,
      "byteOffset": 3145536,
      "componentType": 5126,
      "count": 65532,
      "max": [
        0.9357255101203918,
        0.8751928210258484,
        0.7550308704376221
      ],
      "min": [
        -0.4464162290096283,
        -0.9747516512870789,
        -0.9377282857894897
      ],
      "type": "VEC3"
    },
    {
      "bufferView": 2,
      "byteOffset": 3931920,
      "componentType": 5126,
      "count": 65532,
      "max": [
        0.9979158043861389,
        0.8866652846336365,
        0.8099055290222168
      ],
      "min": [
        -0.5018724203109741,
        -1.0,
        -1.0
      ],
      "type": "VEC3"
    },
    {
      "bufferView": 3,
      "byteOffset": 2097024,
      "componentType": 5126,
      "count": 65532,
      "max": [
        1.0,
        0.17459549009799957,
        0.9950781464576721,
        1.0
      ],
      "min": [
        -1.0,
        -0.1745874285697937,
        -1.0,
        1.0
      ],
      "type": "VEC4"
    },
    {
      "bufferView": 1,
      "byteOffset": 3145536,
      "componentType": 5126,
      "count": 65532,
      "max": [
        0.8105469346046448,
        0.8604346513748169
      ],
      "min": [
        0.0,
        0.0
      ],
      "type": "VEC2"
    },
    {
      "bufferView": 1,
      "byteOffset": 3669792,
      "componentType": 5126,
      "count": 65532,
      "max": [
        0.8105469346046448,
        0.8604346513748169
      ],
      "min": [
        0.0,
        0.0
      ],
      "type": "VEC2"
    },
    {
      "bufferView": 1,
      "byteOffset": 4194048,
      "componentType": 5126,
      "count": 65532,
      "max": [
        0.8105469346046448,
        0.8604346513748169
      ],
      "min": [
        0.0,
        0.0
      ],
      "type": "VEC2"
    },
    {
      "bufferView": 0,
      "byteOffset": 3056052,
      "componentType": 5125,
      "count": 382494,
      "type": "SCALAR"
    },
    {
      "bufferView": 2,
      "byteOffset": 4718304,
      "componentType": 5126,
      "count": 65532,
      "max": [
        0.9377282857894897,
        0.9747516512870789,
        0.9312775731086731
      ],
      "min": [
        -0.7221006751060486,
        -0.8548769354820251,
        -0.9218655228614807
      ],
      "type": "VEC3"
    },
    {
      "bufferView": 2,
      "byteOffset": 5504688,
      "componentType": 5126,
      "count": 65532,
      "max": [
        1.0,
        1.0,
        0.9933121204376221
      ],
      "min": [
        -0.775459349155426,
        -0.8650428652763367,
        -0.9831043481826782
      ],
      "type": "VEC3"
    },
    {
      "bufferView": 3,
      "byteOffset": 3145536,
      "componentType": 5126,
      "count": 65532,
      "max": [
        1.0,
        0.17460323870182037,
        0.9999971389770508,
        1.0
      ],
      "min": [
        -1.0,
        -0.17456591129302979,
        -1.0,
        1.0
      ],
      "type": "VEC4"
    },
    {
      "bufferView": 1,
      "byteOffset": 4718304,
      "componentType": 5126,
      "count": 65532,
      "max": [
        0.757169246673584,
        1.000000238418579
      ],
      "min": [
        0.0,
        0.15429691970348358
      ],
      "type": "VEC2"
    },
    {
      "bufferView": 1,
      "byteOffset": 5242560,
      "componentType": 5126,
      "count": 65532,
      "max": [
        0.757169246673584,
        1.000000238418579
      ],
      "min": [
        0.0,
        0.15429691970348358
      ],
      "type": "VEC2"
    },
    {
      "bufferView": 1,
      "byteOffset": 5766816,
      "componentType": 5126,
      "count": 65532,
      "max": [
        0.757169246673584,
        1.000000238418579
      ],
      "min": [
        0.0,
        0.15429691970348358
      ],
      "type": "VEC2"
    },
    {
      "bufferView": 0,
      "byteOffset": 4586028,
      "componentType": 5125,
      "count": 384429,
      "type": "SCALAR"
    },
    {
      "bufferView": 2,
      "byteOffset": 6291072,
      "componentType": 5126,
      "count": 65532,
      "max": [
        -0.0018827669555321336,
        0.9733777046203613,
        0.9030821919441223
      ],
      "min": [
        -0.9377280473709106,
        -0.9733777046203613,
        -0.9218655824661255
      ],
      "type": "VEC3"
    },
    {
      "bufferView": 2,
      "byteOffset": 7077456,
      "componentType": 5126,
      "count": 65532,
      "max": [
        0.008708483539521694,
        0.997310221195221,
        0.9642398953437805
      ],
      "min": [
        -1.0,
        -0.9973102807998657,
        -0.98310387134552
      ],
      "type": "VEC3"
    },
    {
      "bufferView": 3,
      "byteOffset": 4194048,
      "componentType": 5126,
      "count": 65532,
      "max": [
        0.9931979775428772,
        0.17405739426612854,
        1.0,
        1.0
      ],
      "min": [
        -0.9995673894882202,
        -0.1740531027317047,
        -0.6160579919815063,
        1.0
      ],
      "type": "VEC4"
    },
    {
      "bufferView": 1,
      "byteOffset": 6291072,
      "componentType": 5126,
      "count": 65532,
      "max": [
        1.0,
        0.9961337447166443
      ],
      "min": [
        0.0,
        0.003866418031975627
      ],
      "type": "VEC2"
    },
    {
      "bufferView": 1,
      "byteOffset": 6815328,
      "componentType": 5126,
      "count": 65532,
      "max": [
        1.0,
        0.9961337447166443
      ],
      "min": [
        0.0,
        0.003866418031975627
      ],
      "type": "VEC2"
    },
    {
      "bufferView": 1,
      "byteOffset": 7339584,
      "componentType": 5126,
      "count": 65532,
      "max": [
        1.0,
        0.9961337447166443
      ],
      "min": [
        0.0,
        0.003866418031975627
      ],
      "type": "VEC2"
    },
    {
      "bufferView": 0,
      "byteOffset": 6123744,
      "componentType": 5125,
      "count": 382974,
      "type": "SCALAR"
    },
    {
      "bufferView": 2,
      "byteOffset": 7863840,
      "componentType": 5126,
      "count": 65532,
      "max": [
        0.8829067349433899,
        0.9747516512870789,
        0.9377282857894897
      ],
      "min": [
        -0.9196897745132446,
        -0.2582723796367645,
        -0.732714056968689
      ],
      "type": "VEC3"
    },
    {
      "bufferView": 2,
      "byteOffset": 8650224,
      "componentType": 5126,
      "count": 65532,
      "max": [
        0.9449479579925537,
        1.0,
        1.0
      ],
      "min": [
        -0.9819498062133789,
        -0.2587398588657379,
        -0.7847812175750732
      ],
      "type": "VEC3"
    },
    {
      "bufferView": 3,
      "byteOffset": 5242560,
      "componentType": 5126,
      "count": 65532,
      "max": [
        1.0,
        0.17459890246391296,
        0.9999998807907104,
        1.0
      ],
      "min": [
        -0.9944055676460266,
        -0.17456726729869843,
        -1.0,
        1.0
      ],
      "type": "VEC4"
    },
    {
      "bufferView": 1,
      "byteOffset": 7863840,
      "componentType": 5126,
      "count": 65532,
      "max": [
        0.6640625596046448,
        1.000000238418579
      ],
      "min": [
        0.0,
        0.4140625298023224
      ],
      "type": "VEC2"
    },
    {
      "bufferView": 1,
      "byteOffset": 8388096,
      "componentType": 5126,
      "count": 65532,
      "max": [
        0.6640625596046448,
        1.000000238418579
      ],
      "min": [
        0.0,
        0.4140625298023224
      ],
      "type": "VEC2"
    },
    {
      "bufferView": 1,
      "byteOffset": 8912352,
      "componentType": 5126,
      "count": 65532,
      "max": [
        0.6640625596046448,
        1.000000238418579
      ],
      "min": [
        0.0,
        0.4140625298023224
      ],
      "type": "VEC2"
    },
    {
      "bufferView": 0,
      "byteOffset": 7655640,
      "componentType": 5125,
      "count": 385011,
      "type": "SCALAR"
    },
    {
      "bufferView": 2,
      "byteOffset": 9436608,
      "componentType": 5126,
      "count": 65532,
      "max": [
        0.6589805483818054,
        0.9747516512870789,
        0.9377282857894897
      ],
      "min": [
        -0.8003656268119812,
        -0.9733777046203613,
        -0.0508742593228817
      ],
      "type": "VEC3"
    },
    {
      "bufferView": 2,
      "byteOffset": 10222992,
      "componentType": 5126,
      "count": 65532,
      "max": [
        0.7027080059051514,
        1.0,
        1.0
      ],
      "min": [
        -0.8575518727302551,
        -0.9973099827766418,
        -0.05282538756728172
      ],
      "type": "VEC3"
    },
    {
      "bufferView": 3,
      "byteOffset": 6291072,
      "componentType": 5126,
      "count": 65532,
      "max": [
        1.0,
        0.17460183799266815,
        0.9999985694885254,
        1.0
      ],
      "min": [
        -0.6622149348258972,
        -0.1745782345533371,
        -1.0,
        1.0
      ],
      "type": "VEC4"
    },
    {
      "bufferView": 1,
      "byteOffset": 9436608,
      "componentType": 5126,
      "count": 65532,
      "max": [
        0.517649233341217,
        1.000000238418579
      ],
      "min": [
        0.0,
        0.003866418031975627
      ],
      "type": "VEC2"
    },
    {
      "bufferView": 1,
      "byteOffset": 9960864,
      "componentType": 5126,
      "count": 65532,
      "max": [
        0.517649233341217,
        1.000000238418579
      ],
      "min": [
        0.0,
        0.003866418031975627
      ],
      "type": "VEC2"
    },
    {
      "bufferView": 1,
      "byteOffset": 10485120,
      "componentType": 5126,
      "count": 65532,
      "max": [
        0.517649233341217,
        1.000000238418579
      ],
      "min": [
        0.0,
        0.003866418031975627
      ],
      "type": "VEC2"
    },
    {
      "bufferView": 0,
      "byteOffset": 9195684,
      "componentType": 5125,
      "count": 382482,
      "type": "SCALAR"
    },
    {
      "bufferView": 2,
      "byteOffset": 11009376,
      "componentType": 5126,
      "count": 46081,
      "max": [
        0.8072435855865479,
        0.9733777046203613,
        0.9008805155754089
      ],
      "min": [
        -0.1422957330942154,
        -0.9733777046203613,
        -0.5877461433410645
      ],
      "type": "VEC3"
    },
    {
      "bufferView": 2,
      "byteOffset": 11562348,
      "componentType": 5126,
      "count": 46081,
      "max": [
        0.8608262538909912,
        0.9973103404045105,
        0.9619610905647278
      ],
      "min": [
        -0.1621212214231491,
        -0.9973104000091553,
        -0.6394035816192627
      ],
      "type": "VEC3"
    },
    {
      "bufferView": 3,
      "byteOffset": 7339584,
      "componentType": 5126,
      "count": 46081,
      "max": [
        0.9999809861183167,
        0.1740560382604599,
        0.8679684400558472,
        1.0
      ],
      "min": [
        -0.9995675086975098,
        -0.1740584522485733,
        -0.9995677471160889,
        1.0
      ],
      "type": "VEC4"
    },
    {
      "bufferView": 1,
      "byteOffset": 11009376,
      "componentType": 5126,
      "count": 46081,
      "max": [
        0.7487801909446716,
        0.9961337447166443
      ],
      "min": [
        0.18871980905532837,
        0.003866418031975627
      ],
      "type": "VEC2"
    },
    {
      "bufferView": 1,
      "byteOffset": 11378024,
      "componentType": 5126,
      "count": 46081,
      "max": [
        0.7487801909446716,
        0.9961337447166443
      ],
      "min": [
        0.18871980905532837,
        0.003866418031975627
      ],
      "type": "VEC2"
    },
    {
      "bufferView": 1,
      "byteOffset": 11746672,
      "componentType": 5126,
      "count": 46081,
      "max": [
        0.7487801909446716,
        0.9961337447166443
      ],
      "min": [
        0.18871980905532837,
        0.003866418031975627
      ],
      "type": "VEC2"
    },
    {
      "bufferView": 0,
      "byteOffset": 10725612,
      "componentType": 5125,
      "count": 267717,
      "type": "SCALAR"
    }
  ],
  "asset": {
    "extras": {
      "author": "cmzw (https://sketchfab.com/cmzw)",
      "license": "CC-BY-4.0 (http://creativecommons.org/licenses/by/4.0/)",
      "source": "https://sketchfab.com/3d-models/ancient-runestones-d7819b09ccd647868e60dcaf36ec2045",
      "title": "Ancient Runestones"
    },
    "generator": "Sketchfab-14.5.0",
    "version": "2.0"
  },
  "bufferViews": [
    {
      "buffer": 0,
      "byteLength": 11796480,
      "name": "floatBufferViews",
      "target": 34963
    },
    {
      "buffer": 0,
      "byteLength": 12115320,
      "byteOffset": 11796480,
      "byteStride": 8,
      "name": "floatBufferViews",
      "target": 34962
    },
    {
      "buffer": 0,
      "byteLength": 12115320,
      "byteOffset": 23911800,
      "byteStride": 12,
      "name": "floatBufferViews",
      "target": 34962
    },
    {
      "buffer": 0,
      "byteLength": 8076880,
      "byteOffset": 36027120,
      "byteStride": 16,
      "name": "floatBufferViews",
      "target": 34962
    }
  ],
  "buffers": [
    {
      "byteLength": 44104000,
      "uri": "scene.bin"
    }
  ],
  "extensionsUsed": [
    "KHR_texture_transform"
  ],
  "images": [
    {
      "uri": "textures/Material_baseColor.png"
    },
    {
      "uri": "textures/Material_metallicRoughness.png"
    },
    {
      "uri": "textures/Material_emissive.png"
    },
    {
      "uri": "textures/Material_normal.png"
    }
  ],
  "materials": [
    {
      "emissiveFactor": [
        1.0,
        1.0,
        1.0
      ],
      "emissiveTexture": {
        "extensions": {
          "KHR_texture_transform": {
            "scale": [
              4.000000000000002,
              1.9999999999999984
            ]
          }
        },
        "index": 2,
        "texCoord": 1
      },
      "name": "Material",
      "normalTexture": {
        "extensions": {
          "KHR_texture_transform": {
            "scale": [
              4.000000000000002,
              1.9999999999999984
            ]
          }
        },
        "index": 3,
        "texCoord": 2
      },
      "occlusionTexture": {
        "extensions": {
          "KHR_texture_transform": {
            "scale": [
              4.000000000000002,
              1.9999999999999984
            ]
          }
        },
        "index": 1
      },
      "pbrMetallicRoughness": {
        "baseColorTexture": {
          "extensions": {
            "KHR_texture_transform": {
              "scale": [
                4.000000000000002,
                1.9999999999999984
              ]
            }
          },
          "index": 0
        },
        "metallicFactor": 0.0,
        "metallicRoughnessTexture": {
          "index": 1
        },
        "roughnessFactor": 0.5
      }
    }
  ],
  "meshes": [
    {
      "name": "Object_0",
      "primitives": [
        {
          "attributes": {
            "NORMAL": 1,
            "POSITION": 0,
            "TANGENT": 2,
            "TEXCOORD_0": 3,
            "TEXCOORD_1": 4,
            "TEXCOORD_2": 5
          },
          "indices": 6,
          "material": 0,
          "mode": 4
        }
      ]
    },
    {
      "name": "Object_1",
      "primitives": [
        {
          "attributes": {
            "NORMAL": 8,
            "POSITION": 7,
            "TANGENT": 9,
            "TEXCOORD_0": 10,
            "TEXCOORD_1": 11,
            "TEXCOORD_2": 12
          },
          "indices": 13,
          "material": 0,
          "mode": 4
        }
      ]
    },
    {
      "name": "Object_2",
      "primitives": [
        {
          "attributes": {
            "NORMAL": 15,
            "POSITION": 14,
            "TANGENT": 16,
            "TEXCOORD_0": 17,
            "TEXCOORD_1": 18,
            "TEXCOORD_2": 19
          },
          "indices": 20,
          "material": 0,
          "mode": 4
        }
      ]
    },
    {
      "name": "Object_3",
      "primitives": [
        {
          "attributes": {
            "NORMAL": 22,
            "POSITION": 21,
            "TANGENT": 23,
            "TEXCOORD_0": 24,
            "TEXCOORD_1": 25,
            "TEXCOORD_2": 26
          },
          "indices": 27,
          "material": 0,
          "mode": 4
        }
      ]
    },
    {
      "name": "Object_4",
      "primitives": [
        {
          "attributes": {
            "NORMAL": 29,
            "POSITION": 28,
            "TANGENT": 30,
            "TEXCOORD_0": 31,
            "TEXCOORD_1": 32,
            "TEXCOORD_2": 33
          },
          "indices": 34,
          "material": 0,
          "mode": 4
        }
      ]
    },
    {
      "name": "Object_5",
      "primitives": [
        {
          "attributes": {
            "NORMAL": 36,
            "POSITION": 35,
            "TANGENT": 37,
            "TEXCOORD_0": 38,
            "TEXCOORD_1": 39,
            "TEXCOORD_2": 40
          },
          "indices": 41,
          "material": 0,
          "mode": 4
        }
      ]
    },
    {
      "name": "Object_6",
      "primitives": [
        {
          "attributes": {
            "NORMAL": 43,
            "POSITION": 42,
            "TANGENT": 44,
            "TEXCOORD_0": 45,
            "TEXCOORD_1": 46,
            "TEXCOORD_2": 47
          },
          "indices": 48,
          "material": 0,
          "mode": 4
        }
      ]
    },
    {
      "name": "Object_7",
      "primitives": [
        {
          "attributes": {
            "NORMAL": 50,
            "POSITION": 49,
            "TANGENT": 51,
            "TEXCOORD_0": 52,
            "TEXCOORD_1": 53,
            "TEXCOORD_2": 54
          },
          "indices": 55,
          "material": 0,
          "mode": 4
        }
      ]
    }
  ],
  "nodes": [
    {
      "children": [
        1
      ],
      "matrix": [
        1.0,
        0.0,
        0.0,
        0.0,
        0.0,
        2.220446049250313e-16,
        -1.0,
        0.0,
        0.0,
        1.0,
        2.220446049250313e-16,
        0.0,
        0.0,
        0.0,
        0.0,
        1.0
      ],
      "name": "Sketchfab_model"
    },
    {
      "children": [
        2
      ],
      "name": "root"
    },
    {
      "children": [
        3
      ],
      "matrix": [
        1.0,
        0.0,
        0.0,
        0.0,
        0.0,
        2.220446049250313e-16,
        1.0,
        0.0,
        0.0,
        -1.0,
        2.220446049250313e-16,
        0.0,
        0.0,
        0.0,
        0.0,
        1.0
      ],
      "name": "GLTF_SceneRootNode"
    },
    {
      "children": [
        4,
        5,
        6,
        7,
        8,
        9,
        10,
        11
      ],
      "name": "Sphere_0"
    },
    {
      "mesh": 0,
      "name": "Object_4"
    },
    {
      "mesh": 1,
      "name": "Object_5"
    },
    {
      "mesh": 2,
      "name": "Object_6"
    },
    {
      "mesh": 3,
      "name": "Object_7"
    },
    {
      "mesh": 4,
      "name": "Object_8"
    },
    {
      "mesh": 5,
      "name": "Object_9"
    },
    {
      "mesh": 6,
      "name": "Object_10"
    },
    {
      "mesh": 7,
      "name": "Object_11"
    }
  ],
  "samplers": [
    {
      "magFilter": 9729,
      "minFilter": 9987,
      "wrapS": 10497,
      "wrapT": 10497
    }
  ],
  "scene": 0,
  "scenes": [
    {
      "name": "Sketchfab_Scene",
      "nodes": [
        0
      ]
    }
  ],
  "textures": [
    {
      "sampler": 0,
      "source": 0
    },
    {
      "sampler": 0,
      "source": 1
    },
    {
      "sampler": 0,
      "source": 2
    },
    {
      "sampler": 0,
      "source": 3
    }
  ]
}
