<?xml version="1.0" standalone="no"?>
<!DOCTYPE svg PUBLIC "-//W3C//DTD SVG 20010904//EN"
 "http://www.w3.org/TR/2001/REC-SVG-20010904/DTD/svg10.dtd">
<svg version="1.0" xmlns="http://www.w3.org/2000/svg"
 width="510.000000pt" height="740.000000pt" viewBox="0 0 510.000000 740.000000"
 preserveAspectRatio="xMidYMid meet">

<g transform="translate(0.000000,740.000000) scale(0.100000,-0.100000)"
fill="#000000" stroke="none">
<path d="M3748 7369 c-16 -11 -28 -27 -28 -34 0 -7 -6 -15 -12 -17 -9 -3 -14
-36 -16 -102 -4 -86 -6 -98 -25 -110 -52 -33 -62 -30 -137 38 -115 103 -156
102 -273 -13 -88 -85 -107 -114 -107 -166 l0 -35 -1298 0 c-1428 0 -1348 3
-1446 -61 -55 -37 -107 -103 -133 -169 -17 -42 -18 -124 -21 -1295 -2 -839 1
-1272 8 -1318 14 -91 47 -153 113 -213 102 -93 56 -88 842 -92 379 -1 691 -5
693 -7 3 -2 -31 -107 -75 -232 l-79 -228 -165 -5 c-174 -5 -200 -12 -245 -62
-44 -48 -54 -82 -54 -188 0 -94 2 -103 25 -125 l24 -25 1031 0 1031 0 24 25
c23 22 25 31 25 122 0 111 -6 143 -27 143 -8 0 -11 5 -8 11 9 14 -32 57 -77
80 -32 16 -59 19 -191 19 -124 0 -157 3 -173 16 -10 8 -13 13 -6 9 6 -3 12 -4
12 -2 0 3 -34 102 -75 220 -41 119 -75 218 -75 221 0 4 305 6 678 6 583 0 686
2 730 15 29 9 50 20 47 25 -3 6 0 7 8 4 36 -13 151 112 179 194 9 28 13 235
16 867 l3 829 84 86 c121 124 125 167 25 274 -61 65 -69 86 -48 131 13 30 26
33 134 37 64 2 87 7 103 22 12 11 19 26 17 33 -4 9 0 13 11 11 23 -4 30 32 32
152 1 168 -35 210 -179 210 -73 0 -83 3 -105 25 -42 41 -34 76 35 150 102 109
97 145 -33 272 -132 130 -168 133 -284 22 -66 -64 -77 -66 -129 -34 -19 12
-22 26 -26 102 -9 162 -35 183 -224 183 -114 -1 -132 -3 -156 -21z m272 -69
c11 -7 16 -35 20 -109 6 -113 19 -137 95 -172 80 -37 128 -23 210 60 28 29 58
51 70 51 12 0 47 -27 85 -65 35 -36 70 -65 76 -65 28 0 2 -55 -55 -115 -68
-73 -81 -112 -61 -178 7 -23 29 -58 50 -79 l38 -38 90 0 c121 0 122 -2 122
-135 0 -129 -5 -135 -123 -135 -101 0 -131 -15 -163 -83 -41 -89 -31 -127 55
-212 70 -68 68 -82 -21 -172 -40 -40 -81 -73 -91 -73 -10 0 -49 29 -87 65 -66
62 -72 65 -118 65 -64 0 -129 -34 -153 -80 -14 -26 -19 -56 -19 -117 0 -73 -2
-83 -22 -97 -28 -20 -196 -23 -220 -3 -12 9 -17 37 -21 106 -3 71 -9 99 -24
120 -31 40 -91 71 -144 71 -50 0 -94 -26 -158 -94 -19 -20 -42 -36 -51 -36
-20 0 -170 140 -170 158 0 23 18 48 70 98 65 64 78 106 53 176 -10 28 -32 63
-51 79 -31 27 -38 29 -118 29 -125 0 -124 -2 -124 133 0 75 4 117 12 125 7 7
44 12 95 12 92 0 130 13 156 54 12 18 13 26 4 29 -7 3 -5 6 5 6 24 1 41 67 28
110 -5 19 -37 62 -70 96 -33 35 -60 71 -60 80 0 10 32 50 72 91 91 94 100 95
189 9 62 -60 71 -65 111 -65 53 0 124 34 152 72 15 22 21 48 24 120 3 70 8 96
20 106 19 14 199 17 222 2z m-772 -493 c27 -26 32 -38 30 -68 -2 -21 -4 -36
-6 -34 -2 2 -12 -5 -23 -16 -16 -16 -34 -19 -101 -19 -65 0 -90 -4 -115 -20
-34 -21 -58 -55 -48 -70 3 -6 1 -10 -4 -10 -7 0 -11 -40 -11 -111 0 -181 31
-219 181 -219 96 0 113 -10 125 -69 6 -30 2 -38 -48 -89 -67 -68 -78 -89 -78
-140 0 -48 31 -93 118 -174 105 -96 156 -96 257 2 35 33 72 60 82 60 10 0 33
-9 51 -20 32 -20 32 -20 32 -103 0 -97 18 -140 71 -169 29 -16 52 -18 161 -16
119 3 128 4 153 28 42 39 48 58 54 159 l6 94 42 15 42 16 66 -62 c36 -34 77
-65 90 -68 l25 -6 0 -674 0 -674 -2030 0 -2030 0 0 1139 c0 1240 -3 1179 56
1257 33 43 97 82 155 93 25 5 624 7 1354 4 l1310 -5 33 -31z m1152 -2630 c0
-154 -40 -231 -148 -284 l-57 -28 -1825 3 c-1789 4 -1826 4 -1870 23 -55 24
-105 71 -133 124 -17 31 -22 63 -25 148 l-4 107 2031 0 2031 0 0 -93z m-1587
-620 c42 -122 77 -228 77 -234 0 -10 -111 -13 -520 -13 -377 0 -520 3 -520 11
0 6 35 112 78 235 l77 224 365 0 365 0 78 -223z m498 -350 c47 -31 59 -61 59
-144 l0 -73 -1000 0 -1000 0 0 75 c0 85 14 115 65 146 29 18 71 19 936 19
l906 0 34 -23z"/>
<path d="M3791 6905 c-82 -23 -150 -64 -212 -126 -56 -57 -106 -141 -111 -189
-2 -14 -7 -28 -11 -31 -13 -9 -11 -169 3 -219 28 -103 112 -220 200 -275 223
-140 518 -65 653 165 62 106 74 273 28 392 -45 117 -152 224 -268 268 -76 29
-207 36 -282 15z m280 -107 c148 -73 238 -243 210 -399 -22 -127 -102 -233
-219 -287 -49 -23 -70 -27 -152 -27 -86 0 -101 3 -160 31 -68 33 -114 71 -145
118 -10 15 -24 25 -31 22 -8 -3 -14 -1 -14 4 0 6 4 10 9 10 6 0 1 20 -10 45
-29 66 -35 168 -14 241 33 117 110 203 222 250 50 21 71 24 153 22 80 -3 105
-8 151 -30z"/>
<path d="M1911 6487 c-17 -21 -242 -867 -239 -897 2 -19 10 -26 29 -28 14 -2
31 3 37 11 17 20 84 275 76 288 -4 7 -3 10 2 7 5 -3 45 129 88 294 83 312 85
329 39 336 -11 2 -25 -3 -32 -11z"/>
<path d="M1248 6213 c-101 -101 -168 -176 -168 -187 0 -19 295 -327 333 -347
11 -6 24 -6 36 0 45 25 36 40 -119 195 l-150 152 145 144 c130 129 145 148
143 175 -2 24 -8 31 -28 33 -21 2 -55 -27 -192 -165z"/>
<path d="M2180 6360 c-7 -13 -7 -26 -1 -37 5 -10 71 -79 145 -153 75 -74 136
-139 136 -145 0 -5 -65 -75 -145 -155 -151 -151 -160 -166 -113 -191 18 -9 28
-3 75 43 169 165 293 295 293 308 0 8 -75 91 -168 183 -172 171 -199 190 -222
147z"/>
<path d="M878 5149 c-21 -12 -24 -49 -6 -67 8 -8 62 -12 178 -12 116 0 170 4
178 12 18 18 14 56 -7 68 -25 13 -320 13 -343 -1z"/>
<path d="M1518 5149 c-21 -12 -24 -49 -6 -67 9 -9 208 -12 834 -12 734 0 824
2 838 16 21 20 20 37 -2 57 -17 16 -89 17 -833 17 -534 -1 -820 -4 -831 -11z"/>
<path d="M878 4779 c-21 -12 -24 -49 -6 -67 17 -17 1309 -17 1326 0 18 18 14
56 -7 68 -27 14 -1289 13 -1313 -1z"/>
<path d="M2493 4780 c-25 -10 -31 -48 -11 -68 9 -9 177 -12 694 -12 736 0 710
-2 702 52 -2 14 -12 25 -28 29 -38 11 -1331 9 -1357 -1z"/>
<path d="M10 1285 l0 -114 133 -3 132 -3 3 -577 2 -578 115 0 115 0 0 580 0
580 135 0 135 0 0 115 0 115 -385 0 -385 0 0 -115z"/>
<path d="M1065 1388 c-7 -19 -245 -1355 -245 -1373 0 -13 16 -15 112 -13 l112
3 7 40 c4 22 10 57 14 78 l6 37 139 0 139 0 6 -37 c4 -21 10 -56 14 -78 l7
-40 112 -3 c96 -2 112 0 112 13 0 13 -88 528 -208 1225 l-27 155 -148 3 c-113
2 -148 0 -152 -10z m199 -696 c25 -171 46 -314 46 -317 0 -3 -46 -5 -101 -5
l-101 0 5 28 c3 15 24 149 47 297 46 299 49 319 55 314 2 -2 24 -145 49 -317z"/>
<path d="M1674 1383 c5 -19 10 -43 145 -848 45 -264 83 -490 86 -502 5 -22 9
-23 129 -23 l124 0 6 28 c3 15 26 173 51 352 25 179 47 330 49 335 2 6 6 3 9
-5 5 -12 54 -357 74 -515 3 -22 10 -74 17 -115 l11 -75 128 -3 c75 -1 127 1
127 7 0 10 227 1333 234 1363 3 15 -9 16 -113 15 l-116 -2 -65 -452 c-36 -249
-67 -453 -70 -453 -3 0 -34 204 -70 453 l-65 452 -89 3 c-49 2 -93 -1 -97 -5
-4 -4 -35 -197 -69 -428 -65 -447 -70 -479 -76 -472 -2 2 -31 197 -64 433 -33
236 -62 439 -65 452 -5 21 -9 22 -121 22 -105 0 -115 -2 -110 -17z"/>
<path d="M3000 887 c0 -283 -3 -596 -7 -695 l-6 -182 121 0 122 0 0 300 0 300
210 0 211 0 -3 118 -3 117 -207 3 -208 2 0 160 0 160 210 0 210 0 0 115 0 115
-325 0 -325 0 0 -513z"/>
<path d="M3840 1082 c0 -175 -3 -488 -7 -695 l-6 -377 121 0 122 0 0 695 0
695 -115 0 -115 0 0 -318z"/>
<path d="M4260 893 c0 -280 -3 -592 -7 -696 l-6 -187 121 0 122 0 0 255 c0
152 4 255 9 255 6 0 20 18 32 40 13 22 26 40 29 40 4 0 67 -133 141 -295 l134
-294 128 -1 c70 0 127 2 127 5 0 2 -29 64 -63 137 -35 73 -95 200 -132 281
-47 101 -73 146 -82 143 -7 -3 -13 -1 -13 3 0 5 4 11 9 13 5 2 -15 56 -45 121
-31 67 -53 126 -49 135 3 8 80 134 170 279 91 144 165 265 165 268 0 3 -52 5
-115 5 l-115 0 -80 -120 c-45 -67 -84 -129 -87 -138 -4 -9 -12 -21 -18 -27 -6
-5 -40 -55 -76 -109 l-64 -100 -3 247 -2 247 -115 0 -115 0 0 -507z"/>
</g>
</svg>
