{
  "accessors": [
    {
      "bufferView": 2,
      "componentType": 5126,
      "count": 65532,
      "max": [
        0.4081701636314392,
        0.9830834865570068,
        -9.080395102500916e-09
      ],
      "min": [
        -0.9498968124389648,
        -0.9830834865570068,
        -0.8819670081138611
      ],
      "type": "VEC3"
    },
    {
      "bufferView": 2,
      "byteOffset": 786384,
      "componentType": 5126,
      "count": 65532,
      "max": [
        0.4363860487937927,
        1.0,
        0.00927201472222805
      ],
      "min": [
        -1.0,
        -1.0,
        -0.9285448789596558
      ],
      "type": "VEC3"
    },
    {
      "bufferView": 3,
      "componentType": 5126,
      "count": 65532,
      "max": [
        0.6857212781906128,
        0.1751270890235901,
        1.0,
        1.0
      ],
      "min": [
        -1.0,
        -0.17514152824878693,
        -0.997709333896637,
        1.0
      ],
      "type": "VEC4"
    },
    {
      "bufferView": 1,
      "componentType": 5126,
      "count": 65532,
      "max": [
        1.0000001192092896,
        1.0000001192092896
      ],
      "min": [
        0.5625,
        0.0
      ],
      "type": "VEC2"
    },
    {
      "bufferView": 1,
      "byteOffset": 524256,
      "componentType": 5126,
      "count": 65532,
      "max": [
        1.0000001192092896,
        1.0000001192092896
      ],
      "min": [
        0.5625,
        0.0
      ],
      "type": "VEC2"
    },
    {
      "bufferView": 0,
      "componentType": 5125,
      "count": 378285,
      "type": "SCALAR"
    },
    {
      "bufferView": 2,
      "byteOffset": 1572768,
      "componentType": 5126,
      "count": 65532,
      "max": [
        0.8475318551063538,
        0.8469105362892151,
        0.5011467337608337
      ],
      "min": [
        -0.6378887891769409,
        -0.9830834865570068,
        -0.945845901966095
      ],
      "type": "VEC3"
    },
    {
      "bufferView": 2,
      "byteOffset": 2359152,
      "componentType": 5126,
      "count": 65532,
      "max": [
        0.8949211239814758,
        0.8536719083786011,
        0.5341980457305908
      ],
      "min": [
        -0.6748688817024231,
        -1.0,
        -0.9957209825515747
      ],
      "type": "VEC3"
    },
    {
      "bufferView": 3,
      "byteOffset": 1048512,
      "componentType": 5126,
      "count": 65532,
      "max": [
        1.0,
        0.17513467371463776,
        0.9087380766868591,
        1.0
      ],
      "min": [
        -1.0,
        -0.1751490980386734,
        -1.0,
        1.0
      ],
      "type": "VEC4"
    },
    {
      "bufferView": 1,
      "byteOffset": 1048512,
      "componentType": 5126,
      "count": 65532,
      "max": [
        0.8837889432907104,
        0.8347148895263672
      ],
      "min": [
        0.1874999701976776,
        0.0
      ],
      "type": "VEC2"
    },
    {
      "bufferView": 1,
      "byteOffset": 1572768,
      "componentType": 5126,
      "count": 65532,
      "max": [
        0.8837889432907104,
        0.8347148895263672
      ],
      "min": [
        0.1874999701976776,
        0.0
      ],
      "type": "VEC2"
    },
    {
      "bufferView": 0,
      "byteOffset": 1513140,
      "componentType": 5125,
      "count": 383049,
      "type": "SCALAR"
    },
    {
      "bufferView": 2,
      "byteOffset": 3145536,
      "componentType": 5126,
      "count": 65532,
      "max": [
        0.9498969316482544,
        0.9830834865570068,
        0.8128326535224915
      ],
      "min": [
        -0.49638715386390686,
        -0.9830834865570068,
        -0.9498969316482544
      ],
      "type": "VEC3"
    },
    {
      "bufferView": 2,
      "byteOffset": 3931920,
      "componentType": 5126,
      "count": 65532,
      "max": [
        1.0,
        1.0,
        0.8587953448295593
      ],
      "min": [
        -0.5419909358024597,
        -1.0,
        -1.0
      ],
      "type": "VEC3"
    },
    {
      "bufferView": 3,
      "byteOffset": 2097024,
      "componentType": 5126,
      "count": 65532,
      "max": [
        1.0,
        0.1751132607460022,
        0.998802661895752,
        1.0
      ],
      "min": [
        -1.0,
        -0.17515456676483154,
        -1.0,
        1.0
      ],
      "type": "VEC4"
    },
    {
      "bufferView": 1,
      "byteOffset": 2097024,
      "componentType": 5126,
      "count": 65532,
      "max": [
        0.8076171278953552,
        1.0000001192092896
      ],
      "min": [
        0.0,
        0.0
      ],
      "type": "VEC2"
    },
    {
      "bufferView": 1,
      "byteOffset": 2621280,
      "componentType": 5126,
      "count": 65532,
      "max": [
        0.8076171278953552,
        1.0000001192092896
      ],
      "min": [
        0.0,
        0.0
      ],
      "type": "VEC2"
    },
    {
      "bufferView": 0,
      "byteOffset": 3045336,
      "componentType": 5125,
      "count": 383499,
      "type": "SCALAR"
    },
    {
      "bufferView": 2,
      "byteOffset": 4718304,
      "componentType": 5126,
      "count": 65532,
      "max": [
        0.9494450092315674,
        0.9822061061859131,
        0.9147241115570068
      ],
      "min": [
        -0.9124936461448669,
        -0.9822061061859131,
        -0.9093450307846069
      ],
      "type": "VEC3"
    },
    {
      "bufferView": 2,
      "byteOffset": 5504688,
      "componentType": 5126,
      "count": 65532,
      "max": [
        0.9995198845863342,
        0.9971349835395813,
        0.9640339612960815
      ],
      "min": [
        -0.961734414100647,
        -0.9971349835395813,
        -0.9576204419136047
      ],
      "type": "VEC3"
    },
    {
      "bufferView": 3,
      "byteOffset": 3145536,
      "componentType": 5126,
      "count": 65532,
      "max": [
        1.0,
        0.17475739121437073,
        0.9999976754188538,
        1.0
      ],
      "min": [
        -0.9995219111442566,
        -0.17476294934749603,
        -1.0,
        1.0
      ],
      "type": "VEC4"
    },
    {
      "bufferView": 1,
      "byteOffset": 3145536,
      "componentType": 5126,
      "count": 65532,
      "max": [
        1.0,
        0.9961345195770264
      ],
      "min": [
        0.06054682657122612,
        0.003865570295602083
      ],
      "type": "VEC2"
    },
    {
      "bufferView": 1,
      "byteOffset": 3669792,
      "componentType": 5126,
      "count": 65532,
      "max": [
        1.0,
        0.9961345195770264
      ],
      "min": [
        0.06054682657122612,
        0.003865570295602083
      ],
      "type": "VEC2"
    },
    {
      "bufferView": 0,
      "byteOffset": 4579332,
      "componentType": 5125,
      "count": 380235,
      "type": "SCALAR"
    },
    {
      "bufferView": 2,
      "byteOffset": 6291072,
      "componentType": 5126,
      "count": 65532,
      "max": [
        0.893523633480072,
        0.6933799386024475,
        0.9498969316482544
      ],
      "min": [
        -0.9498968124389648,
        -0.8321908712387085,
        -4.440207703737542e-07
      ],
      "type": "VEC3"
    },
    {
      "bufferView": 2,
      "byteOffset": 7077456,
      "componentType": 5126,
      "count": 65532,
      "max": [
        0.9408426880836487,
        0.7023818492889404,
        1.0
      ],
      "min": [
        -1.0,
        -0.8404200077056885,
        -1.481909021094907e-05
      ],
      "type": "VEC3"
    },
    {
      "bufferView": 3,
      "byteOffset": 4194048,
      "componentType": 5126,
      "count": 65532,
      "max": [
        1.0,
        0.009155957028269768,
        1.0,
        1.0
      ],
      "min": [
        -3.2271063901134767e-06,
        -0.02652009017765522,
        -0.9416900277137756,
        1.0
      ],
      "type": "VEC4"
    },
    {
      "bufferView": 1,
      "byteOffset": 4194048,
      "componentType": 5126,
      "count": 65532,
      "max": [
        0.4453125298023224,
        0.7519533038139343
      ],
      "min": [
        0.0,
        0.1738281548023224
      ],
      "type": "VEC2"
    },
    {
      "bufferView": 1,
      "byteOffset": 4718304,
      "componentType": 5126,
      "count": 65532,
      "max": [
        0.4453125298023224,
        0.7519533038139343
      ],
      "min": [
        0.0,
        0.1738281548023224
      ],
      "type": "VEC2"
    },
    {
      "bufferView": 0,
      "byteOffset": 6100272,
      "componentType": 5125,
      "count": 386991,
      "type": "SCALAR"
    },
    {
      "bufferView": 2,
      "byteOffset": 7863840,
      "componentType": 5126,
      "count": 65532,
      "max": [
        0.9395632147789001,
        0.9830834865570068,
        0.8753433227539063
      ],
      "min": [
        -0.8923789858818054,
        -0.04184330627322197,
        -0.8551713228225708
      ],
      "type": "VEC3"
    },
    {
      "bufferView": 2,
      "byteOffset": 8650224,
      "componentType": 5126,
      "count": 65532,
      "max": [
        0.9891313910484314,
        1.0,
        0.9249866604804993
      ],
      "min": [
        -0.9423624277114868,
        -0.042237620800733566,
        -0.9012032747268677
      ],
      "type": "VEC3"
    },
    {
      "bufferView": 3,
      "byteOffset": 5242560,
      "componentType": 5126,
      "count": 65532,
      "max": [
        1.0,
        0.17511335015296936,
        0.9999995231628418,
        1.0
      ],
      "min": [
        -0.9977113008499146,
        -0.17512474954128265,
        -1.0,
        1.0
      ],
      "type": "VEC4"
    },
    {
      "bufferView": 1,
      "byteOffset": 5242560,
      "componentType": 5126,
      "count": 65532,
      "max": [
        0.690891683101654,
        1.0000001192092896
      ],
      "min": [
        0.0,
        0.4863280951976776
      ],
      "type": "VEC2"
    },
    {
      "bufferView": 1,
      "byteOffset": 5766816,
      "componentType": 5126,
      "count": 65532,
      "max": [
        0.690891683101654,
        1.0000001192092896
      ],
      "min": [
        0.0,
        0.4863280951976776
      ],
      "type": "VEC2"
    },
    {
      "bufferView": 0,
      "byteOffset": 7648236,
      "componentType": 5125,
      "count": 387150,
      "type": "SCALAR"
    },
    {
      "bufferView": 2,
      "byteOffset": 9436608,
      "componentType": 5126,
      "count": 65532,
      "max": [
        0.6374984383583069,
        0.9830834865570068,
        0.8730464577674866
      ],
      "min": [
        -0.8561781048774719,
        -0.9822061061859131,
        -0.5655048489570618
      ],
      "type": "VEC3"
    },
    {
      "bufferView": 2,
      "byteOffset": 10222992,
      "componentType": 5126,
      "count": 65532,
      "max": [
        0.6808929443359375,
        1.0,
        0.9190355539321899
      ],
      "min": [
        -0.9054293036460876,
        -0.9971346259117126,
        -0.6044173240661621
      ],
      "type": "VEC3"
    },
    {
      "bufferView": 3,
      "byteOffset": 6291072,
      "componentType": 5126,
      "count": 65532,
      "max": [
        1.0,
        0.1751260906457901,
        0.9999992251396179,
        1.0
      ],
      "min": [
        -0.9087458848953247,
        -0.17513826489448547,
        -1.0,
        1.0
      ],
      "type": "VEC4"
    },
    {
      "bufferView": 1,
      "byteOffset": 6291072,
      "componentType": 5126,
      "count": 65532,
      "max": [
        0.677734375,
        1.0000001192092896
      ],
      "min": [
        0.0,
        0.003865570295602083
      ],
      "type": "VEC2"
    },
    {
      "bufferView": 1,
      "byteOffset": 6815328,
      "componentType": 5126,
      "count": 65532,
      "max": [
        0.677734375,
        1.0000001192092896
      ],
      "min": [
        0.0,
        0.003865570295602083
      ],
      "type": "VEC2"
    },
    {
      "bufferView": 0,
      "byteOffset": 9196836,
      "componentType": 5125,
      "count": 385902,
      "type": "SCALAR"
    },
    {
      "bufferView": 2,
      "byteOffset": 11009376,
      "componentType": 5126,
      "count": 45630,
      "max": [
        0.47785305976867676,
        0.9830834865570068,
        0.8819835186004639
      ],
      "min": [
        -0.8107516169548035,
        -0.9822061061859131,
        -0.8045400977134705
      ],
      "type": "VEC3"
    },
    {
      "bufferView": 2,
      "byteOffset": 11556936,
      "componentType": 5126,
      "count": 45630,
      "max": [
        0.5095254182815552,
        1.0,
        0.9317834973335266
      ],
      "min": [
        -0.8567578792572021,
        -0.9971349239349365,
        -0.8502116203308105
      ],
      "type": "VEC3"
    },
    {
      "bufferView": 3,
      "byteOffset": 7339584,
      "componentType": 5126,
      "count": 45630,
      "max": [
        1.0,
        0.17512516677379608,
        0.9977108240127563,
        1.0
      ],
      "min": [
        -0.9996809363365173,
        -0.17514334619045258,
        -0.9995218515396118,
        1.0
      ],
      "type": "VEC4"
    },
    {
      "bufferView": 1,
      "byteOffset": 7339584,
      "componentType": 5126,
      "count": 45630,
      "max": [
        0.7488715052604675,
        1.0000001192092896
      ],
      "min": [
        0.06152339279651642,
        0.003865570295602083
      ],
      "type": "VEC2"
    },
    {
      "bufferView": 1,
      "byteOffset": 7704624,
      "componentType": 5126,
      "count": 45630,
      "max": [
        0.7488715052604675,
        1.0000001192092896
      ],
      "min": [
        0.06152339279651642,
        0.003865570295602083
      ],
      "type": "VEC2"
    },
    {
      "bufferView": 0,
      "byteOffset": 10740444,
      "componentType": 5125,
      "count": 264009,
      "type": "SCALAR"
    }
  ],
  "asset": {
    "extras": {
      "author": "cmzw (https://sketchfab.com/cmzw)",
      "license": "CC-BY-4.0 (http://creativecommons.org/licenses/by/4.0/)",
      "source": "https://sketchfab.com/3d-models/futuristic-garden-8b208ba01c1f45cd86e9c72d2164637b",
      "title": "Futuristic Garden"
    },
    "generator": "Sketchfab-14.42.0",
    "version": "2.0"
  },
  "bufferViews": [
    {
      "buffer": 0,
      "byteLength": 11796480,
      "name": "floatBufferViews",
      "target": 34963
    },
    {
      "buffer": 0,
      "byteLength": 8069664,
      "byteOffset": 11796480,
      "byteStride": 8,
      "name": "floatBufferViews",
      "target": 34962
    },
    {
      "buffer": 0,
      "byteLength": 12104496,
      "byteOffset": 19866144,
      "byteStride": 12,
      "name": "floatBufferViews",
      "target": 34962
    },
    {
      "buffer": 0,
      "byteLength": 8069664,
      "byteOffset": 31970640,
      "byteStride": 16,
      "name": "floatBufferViews",
      "target": 34962
    }
  ],
  "buffers": [
    {
      "byteLength": 40040304,
      "uri": "scene.bin"
    }
  ],
  "extensionsUsed": [
    "KHR_texture_transform"
  ],
  "images": [
    {
      "uri": "textures/Material_baseColor.png"
    },
    {
      "uri": "textures/Material_metallicRoughness.png"
    },
    {
      "uri": "textures/Material_normal.png"
    }
  ],
  "materials": [
    {
      "doubleSided": true,
      "name": "Material",
      "normalTexture": {
        "extensions": {
          "KHR_texture_transform": {
            "scale": [
              4.000000000000002,
              1.9999999999999984
            ]
          }
        },
        "index": 2,
        "texCoord": 1
      },
      "occlusionTexture": {
        "extensions": {
          "KHR_texture_transform": {
            "scale": [
              4.000000000000002,
              1.9999999999999984
            ]
          }
        },
        "index": 1
      },
      "pbrMetallicRoughness": {
        "baseColorTexture": {
          "extensions": {
            "KHR_texture_transform": {
              "scale": [
                4.000000000000002,
                1.9999999999999984
              ]
            }
          },
          "index": 0
        },
        "metallicFactor": 0.20428276477229487,
        "metallicRoughnessTexture": {
          "index": 1
        }
      }
    }
  ],
  "meshes": [
    {
      "name": "Object_0",
      "primitives": [
        {
          "attributes": {
            "NORMAL": 1,
            "POSITION": 0,
            "TANGENT": 2,
            "TEXCOORD_0": 3,
            "TEXCOORD_1": 4
          },
          "indices": 5,
          "material": 0,
          "mode": 4
        }
      ]
    },
    {
      "name": "Object_1",
      "primitives": [
        {
          "attributes": {
            "NORMAL": 7,
            "POSITION": 6,
            "TANGENT": 8,
            "TEXCOORD_0": 9,
            "TEXCOORD_1": 10
          },
          "indices": 11,
          "material": 0,
          "mode": 4
        }
      ]
    },
    {
      "name": "Object_2",
      "primitives": [
        {
          "attributes": {
            "NORMAL": 13,
            "POSITION": 12,
            "TANGENT": 14,
            "TEXCOORD_0": 15,
            "TEXCOORD_1": 16
          },
          "indices": 17,
          "material": 0,
          "mode": 4
        }
      ]
    },
    {
      "name": "Object_3",
      "primitives": [
        {
          "attributes": {
            "NORMAL": 19,
            "POSITION": 18,
            "TANGENT": 20,
            "TEXCOORD_0": 21,
            "TEXCOORD_1": 22
          },
          "indices": 23,
          "material": 0,
          "mode": 4
        }
      ]
    },
    {
      "name": "Object_4",
      "primitives": [
        {
          "attributes": {
            "NORMAL": 25,
            "POSITION": 24,
            "TANGENT": 26,
            "TEXCOORD_0": 27,
            "TEXCOORD_1": 28
          },
          "indices": 29,
          "material": 0,
          "mode": 4
        }
      ]
    },
    {
      "name": "Object_5",
      "primitives": [
        {
          "attributes": {
            "NORMAL": 31,
            "POSITION": 30,
            "TANGENT": 32,
            "TEXCOORD_0": 33,
            "TEXCOORD_1": 34
          },
          "indices": 35,
          "material": 0,
          "mode": 4
        }
      ]
    },
    {
      "name": "Object_6",
      "primitives": [
        {
          "attributes": {
            "NORMAL": 37,
            "POSITION": 36,
            "TANGENT": 38,
            "TEXCOORD_0": 39,
            "TEXCOORD_1": 40
          },
          "indices": 41,
          "material": 0,
          "mode": 4
        }
      ]
    },
    {
      "name": "Object_7",
      "primitives": [
        {
          "attributes": {
            "NORMAL": 43,
            "POSITION": 42,
            "TANGENT": 44,
            "TEXCOORD_0": 45,
            "TEXCOORD_1": 46
          },
          "indices": 47,
          "material": 0,
          "mode": 4
        }
      ]
    }
  ],
  "nodes": [
    {
      "children": [
        1
      ],
      "matrix": [
        1.0,
        0.0,
        0.0,
        0.0,
        0.0,
        2.220446049250313e-16,
        -1.0,
        0.0,
        0.0,
        1.0,
        2.220446049250313e-16,
        0.0,
        0.0,
        0.0,
        0.0,
        1.0
      ],
      "name": "Sketchfab_model"
    },
    {
      "children": [
        2
      ],
      "name": "root"
    },
    {
      "children": [
        3
      ],
      "matrix": [
        1.0,
        0.0,
        0.0,
        0.0,
        0.0,
        2.220446049250313e-16,
        1.0,
        0.0,
        0.0,
        -1.0,
        2.220446049250313e-16,
        0.0,
        0.0,
        0.0,
        0.0,
        1.0
      ],
      "name": "GLTF_SceneRootNode"
    },
    {
      "children": [
        4,
        5,
        6,
        7,
        8,
        9,
        10,
        11
      ],
      "name": "Sphere_0"
    },
    {
      "mesh": 0,
      "name": "Object_4"
    },
    {
      "mesh": 1,
      "name": "Object_5"
    },
    {
      "mesh": 2,
      "name": "Object_6"
    },
    {
      "mesh": 3,
      "name": "Object_7"
    },
    {
      "mesh": 4,
      "name": "Object_8"
    },
    {
      "mesh": 5,
      "name": "Object_9"
    },
    {
      "mesh": 6,
      "name": "Object_10"
    },
    {
      "mesh": 7,
      "name": "Object_11"
    }
  ],
  "samplers": [
    {
      "magFilter": 9729,
      "minFilter": 9987,
      "wrapS": 10497,
      "wrapT": 10497
    }
  ],
  "scene": 0,
  "scenes": [
    {
      "name": "Sketchfab_Scene",
      "nodes": [
        0
      ]
    }
  ],
  "textures": [
    {
      "sampler": 0,
      "source": 0
    },
    {
      "sampler": 0,
      "source": 1
    },
    {
      "sampler": 0,
      "source": 2
    }
  ]
}
